<svg version="1.1" xmlns="http://www.w3.org/2000/svg" xmlns:xlink="http://www.w3.org/1999/xlink" viewBox="0 0 172 172"><g fill="none" fill-rule="nonzero" stroke="none" stroke-width="1" stroke-linecap="butt" stroke-linejoin="miter" stroke-miterlimit="10" stroke-dasharray="" stroke-dashoffset="0" font-family="none" font-weight="none" font-size="none" text-anchor="none" style="mix-blend-mode: normal"><path d="M0,172v-172h172v172z" fill="none"></path><path d="M86,172c-47.49649,0 -86,-38.50351 -86,-86v0c0,-47.49649 38.50351,-86 86,-86v0c47.49649,0 86,38.50351 86,86v0c0,47.49649 -38.50351,86 -86,86z" fill="#cccccc"></path><g fill="#000000"><path d="M58.54694,94.6l-4.31147,24.42973c-0.72813,4.11653 -4.28853,7.1036 -8.46813,7.1036h-2.7692c-4.75293,0 -8.6,3.8528 -8.6,8.6c0,4.7472 3.84707,8.6 8.6,8.6h2.7692c12.54453,0 23.23147,-8.9612 25.41013,-21.31653l4.83893,-27.4168z"></path><path d="M94.59814,28.66667h-2.7692c-12.54453,0 -23.23147,8.9612 -25.41013,21.31653l-4.8332,27.4168h17.46373l4.31147,-24.42973c0.72813,-4.11653 4.28853,-7.1036 8.46813,-7.1036h2.7692c4.75293,0 8.6,-3.8528 8.6,-8.6c0,-4.7472 -3.84707,-8.6 -8.6,-8.6z"></path><path d="M88.86481,94.6h-40.13333c-4.75293,0 -8.6,-3.8528 -8.6,-8.6c0,-4.7472 3.84707,-8.6 8.6,-8.6h40.13333c4.75293,0 8.6,3.8528 8.6,8.6c0,4.7472 -3.84707,8.6 -8.6,8.6z" opacity="0.35"></path><path d="M126.69334,139.9736l-5.762,-13.75427l-5.6932,13.73707c-0.8428,2.03533 -2.82653,3.35973 -5.02813,3.35973v0c-3.98467,0 -6.622,-4.1452 -4.92493,-7.75147l9.07013,-19.34427l-8.08973,-17.03947c-1.6684,-3.52027 0.8944,-7.57947 4.79307,-7.57947h0.23507c2.16147,0 4.10507,1.31293 4.9192,3.31387l5.01667,12.38973l5.07973,-12.41267c0.81413,-1.9952 2.75773,-3.29667 4.90773,-3.29667v0c3.9044,0 6.47293,4.0764 4.7816,7.59667l-8.12413,16.94773l9.17907,19.4016c1.70853,3.612 -0.92307,7.76867 -4.9192,7.76867h-0.41853c-2.19587,0.00573 -4.17387,-1.31293 -5.0224,-3.3368z" opacity="0.35"></path></g></g></svg>