<svg version="1.1" xmlns="http://www.w3.org/2000/svg" xmlns:xlink="http://www.w3.org/1999/xlink" viewBox="0 0 172 172"><g fill="none" fill-rule="nonzero" stroke="none" stroke-width="1" stroke-linecap="butt" stroke-linejoin="miter" stroke-miterlimit="10" stroke-dasharray="" stroke-dashoffset="0" font-family="none" font-weight="none" font-size="none" text-anchor="none" style="mix-blend-mode: normal"><path d="M0,172v-172h172v172z" fill="none"></path><g><path d="M161.25,13.4375v147.8125h-147.8125z" fill="#cccccc"></path><rect x="45" y="45" transform="scale(2.6875,2.6875)" width="15" height="15" fill="#ffffff"></rect><path d="M13.4375,161.25l29.5625,-29.5625l10.75,13.4375l2.6875,16.125z" fill="#ffffff"></path><path d="M161.25,163.9375h-147.8125c-1.08575,0 -2.06669,-0.65575 -2.48325,-1.65819c-0.41656,-1.00512 -0.18544,-2.16075 0.58319,-2.92937l147.8125,-147.8125c0.76862,-0.76862 1.92156,-0.99706 2.92937,-0.58319c1.00512,0.41656 1.65819,1.3975 1.65819,2.48325v147.8125c0,1.4835 -1.20131,2.6875 -2.6875,2.6875zM19.92512,158.5625h138.63738v-138.63737z" fill="#000000"></path><path d="M120.9375,129c-1.48619,0 -2.6875,-1.204 -2.6875,-2.6875v-5.375c0,-1.4835 1.20131,-2.6875 2.6875,-2.6875h40.3125c1.48619,0 2.6875,1.204 2.6875,2.6875c0,1.4835 -1.20131,2.6875 -2.6875,2.6875h-37.625v2.6875c0,1.4835 -1.20131,2.6875 -2.6875,2.6875z" fill="#000000"></path><path d="M120.9375,161.25c-1.48619,0 -2.6875,-1.204 -2.6875,-2.6875v-2.6875c0,-1.4835 1.20131,-2.6875 2.6875,-2.6875c1.48619,0 2.6875,1.204 2.6875,2.6875v2.6875c0,1.4835 -1.20131,2.6875 -2.6875,2.6875z" fill="#000000"></path><path d="M160.2825,153.94c-3.50181,0 -6.3425,2.84069 -6.3425,6.3425c0,3.50181 2.84069,6.3425 6.3425,6.3425c3.50181,0 6.3425,-2.84069 6.3425,-6.3425c0,-3.50181 -2.84069,-6.3425 -6.3425,-6.3425zM14.405,153.94c-3.50181,0 -6.3425,2.84069 -6.3425,6.3425c0,3.50181 2.84069,6.3425 6.3425,6.3425c3.50181,0 6.3425,-2.84069 6.3425,-6.3425c0,-3.50181 -2.84069,-6.3425 -6.3425,-6.3425zM160.2825,8.0625c-3.50181,0 -6.3425,2.84069 -6.3425,6.3425c0,3.50181 2.84069,6.3425 6.3425,6.3425c3.50181,0 6.3425,-2.84069 6.3425,-6.3425c0,-3.50181 -2.84069,-6.3425 -6.3425,-6.3425z" fill="#000000"></path><path d="M56.4375,163.9375c-1.4835,0 -2.6875,-1.204 -2.6875,-2.6875c0,-10.37913 -4.46125,-20.15356 -12.55869,-27.52c-1.09919,-0.99975 -1.17713,-2.69825 -0.18006,-3.79744c0.99975,-1.0965 2.70094,-1.17713 3.79744,-0.18006c9.23156,8.39844 14.31631,19.58381 14.31631,31.4975c0,1.4835 -1.204,2.6875 -2.6875,2.6875z" fill="#000000"></path><path d="M126.3125,134.375c0,-1.4835 -1.204,-2.6875 -2.6875,-2.6875h-5.375c-1.4835,0 -2.6875,1.204 -2.6875,2.6875c0,1.4835 1.204,2.6875 2.6875,2.6875h5.375c1.4835,0 2.6875,-1.204 2.6875,-2.6875z" fill="#000000"></path><path d="M126.3125,147.8125c0,-1.4835 -1.204,-2.6875 -2.6875,-2.6875h-5.375c-1.4835,0 -2.6875,1.204 -2.6875,2.6875c0,1.4835 1.204,2.6875 2.6875,2.6875h5.375c1.4835,0 2.6875,-1.204 2.6875,-2.6875z" fill="#000000"></path><path d="M126.3125,147.8125c0,-1.4835 -1.204,-2.6875 -2.6875,-2.6875h-5.375c-1.4835,0 -2.6875,1.204 -2.6875,2.6875c0,1.4835 1.204,2.6875 2.6875,2.6875h5.375c1.4835,0 2.6875,-1.204 2.6875,-2.6875z" fill="#000000"></path></g></g></svg>